# Blender v2.79 (sub 0) OBJ File: ''
# www.blender.org
o Icosphere
v 0.000000 -1.069321 0.000000
v 0.773768 -0.478221 0.562169
v -0.295548 -0.478222 0.909617
v -0.956429 -0.478217 0.000000
v -0.295548 -0.478222 -0.909617
v 0.773768 -0.478221 -0.562169
v 0.295548 0.478222 0.909617
v -0.773768 0.478221 0.562169
v -0.773768 0.478221 -0.562169
v 0.295548 0.478222 -0.909617
v 0.956429 0.478217 0.000000
v 0.000000 1.069321 0.000000
v -0.173717 -0.909623 0.534655
v 0.454806 -0.909622 0.330432
v 0.281091 -0.562182 0.865093
v 0.909616 -0.562180 0.000000
v 0.454806 -0.909622 -0.330432
v -0.562174 -0.909620 0.000000
v -0.735895 -0.562181 0.534657
v -0.173717 -0.909623 -0.534655
v -0.735895 -0.562181 -0.534657
v 0.281091 -0.562182 -0.865093
v 1.016986 -0.000000 0.330434
v 1.016986 -0.000000 -0.330434
v 0.000000 -0.000000 1.069321
v 0.628532 -0.000000 0.865099
v -1.016986 -0.000000 0.330434
v -0.628532 -0.000000 0.865099
v -0.628532 -0.000000 -0.865099
v -1.016986 -0.000000 -0.330434
v 0.628532 -0.000000 -0.865099
v 0.000000 -0.000000 -1.069321
v 0.735895 0.562181 0.534657
v -0.281091 0.562182 0.865093
v -0.909616 0.562180 0.000000
v -0.281091 0.562182 -0.865093
v 0.735895 0.562181 -0.534657
v 0.173717 0.909623 0.534655
v 0.562174 0.909620 0.000000
v -0.454806 0.909622 0.330432
v -0.454806 0.909622 -0.330432
v 0.173717 0.909623 -0.534655
vt 0.000000 0.000000
vt 1.000000 0.000000
vt 1.000000 1.000000
vt 0.000000 0.000000
vt 1.000000 0.000000
vt 1.000000 0.000000
vt 1.000000 1.000000
vt 1.000000 0.000000
vt 1.000000 1.000000
vt 1.000000 0.000000
vt 1.000000 1.000000
vt 1.000000 0.000000
vt 1.000000 1.000000
vt 0.000000 0.000000
vt 1.000000 0.000000
vt 1.000000 1.000000
vt 0.000000 0.000000
vt 1.000000 0.000000
vt 1.000000 1.000000
vt 0.000000 0.000000
vt 1.000000 0.000000
vt 1.000000 1.000000
vt 0.000000 0.000000
vt 1.000000 0.000000
vt 1.000000 1.000000
vt 1.000000 0.000000
vt 1.000000 1.000000
vt 1.000000 0.000000
vt 1.000000 1.000000
vt 1.000000 0.000000
vt 1.000000 1.000000
vt 1.000000 0.000000
vt 1.000000 1.000000
vt 1.000000 0.000000
vt 1.000000 1.000000
vt 0.000000 0.000000
vt 1.000000 0.000000
vt 1.000000 1.000000
vt 0.000000 0.000000
vt 1.000000 0.000000
vt 1.000000 1.000000
vt 0.000000 0.000000
vt 1.000000 0.000000
vt 1.000000 1.000000
vt 0.000000 0.000000
vt 1.000000 0.000000
vt 1.000000 1.000000
vt 0.000000 0.000000
vt 1.000000 0.000000
vt 1.000000 1.000000
vt 0.000000 0.000000
vt 1.000000 0.000000
vt 1.000000 1.000000
vt 0.000000 0.000000
vt 1.000000 1.000000
vt 0.000000 0.000000
vt 1.000000 1.000000
vt 0.000000 0.000000
vt 1.000000 1.000000
vt 0.000000 0.000000
vt 1.000000 1.000000
vt 0.000000 0.000000
vt 1.000000 1.000000
vt 0.000000 0.000000
vt 1.000000 1.000000
vt 0.000000 0.000000
vt 1.000000 1.000000
vt 0.000000 0.000000
vt 1.000000 1.000000
vt 0.000000 0.000000
vt 1.000000 1.000000
vt 0.000000 0.000000
vt 1.000000 0.000000
vt 1.000000 0.000000
vt 0.000000 0.000000
vt 0.000000 0.000000
vt 1.000000 0.000000
vt 1.000000 0.000000
vt 0.000000 0.000000
vt 0.000000 0.000000
vt 1.000000 0.000000
vt 1.000000 0.000000
vt 0.000000 0.000000
vt 0.000000 0.000000
vt 1.000000 0.000000
vt 1.000000 0.000000
vt 0.000000 0.000000
vt 0.000000 0.000000
vt 1.000000 0.000000
vt 1.000000 0.000000
vt 0.000000 0.000000
vt 1.000000 1.000000
vt 0.000000 0.000000
vt 1.000000 1.000000
vt 1.000000 1.000000
vt 0.000000 0.000000
vt 1.000000 1.000000
vt 1.000000 1.000000
vt 0.000000 0.000000
vt 1.000000 1.000000
vt 1.000000 1.000000
vt 0.000000 0.000000
vt 1.000000 1.000000
vt 1.000000 1.000000
vt 0.000000 0.000000
vt 1.000000 1.000000
vt 0.000000 0.000000
vt 1.000000 0.000000
vt 1.000000 0.000000
vt 0.000000 0.000000
vt 1.000000 0.000000
vt 1.000000 0.000000
vt 0.000000 0.000000
vt 1.000000 0.000000
vt 1.000000 0.000000
vt 0.000000 0.000000
vt 1.000000 1.000000
vt 0.000000 0.000000
vt 1.000000 1.000000
vt 1.000000 0.000000
vt 1.000000 0.000000
vn 0.0000 1.0000 0.0000
vn 0.1625 0.8506 -0.5000
vn -0.4253 0.8506 -0.3090
vn -0.7236 0.4472 -0.5257
vn -0.8506 0.5257 0.0000
vn 0.5257 0.8506 0.0000
vn 0.1625 0.8506 0.5000
vn -0.4253 0.8506 0.3090
vn -0.9510 0.0000 -0.3090
vn 0.2764 0.4472 -0.8506
vn 0.0000 0.0000 -1.0000
vn -0.2629 0.5257 -0.8090
vn 0.8944 0.4472 0.0000
vn 0.9510 0.0000 -0.3090
vn 0.6882 0.5257 -0.5000
vn 0.2764 0.4472 0.8506
vn 0.5878 0.0000 0.8090
vn 0.6882 0.5257 0.5000
vn -0.7236 0.4472 0.5257
vn -0.5878 0.0000 0.8090
vn -0.2629 0.5257 0.8090
vn -0.5878 0.0000 -0.8090
vn 0.5878 0.0000 -0.8090
vn 0.9510 0.0000 0.3090
vn 0.0000 0.0000 1.0000
vn -0.9510 0.0000 0.3090
vn -0.2764 -0.4472 -0.8506
vn -0.1625 -0.8506 -0.5000
vn -0.6882 -0.5257 -0.5000
vn 0.7236 -0.4472 -0.5257
vn 0.4253 -0.8506 -0.3090
vn 0.2629 -0.5257 -0.8090
vn 0.7236 -0.4472 0.5257
vn 0.4253 -0.8506 0.3090
vn 0.8506 -0.5257 0.0000
vn -0.2764 -0.4472 0.8506
vn -0.1625 -0.8506 0.5000
vn 0.2629 -0.5257 0.8090
vn -0.8944 -0.4472 0.0000
vn -0.5257 -0.8506 0.0000
vn -0.6882 -0.5257 0.5000
vn 0.0000 -1.0000 0.0000
s 1
f 1/1/1 13/2/2 14/3/3
f 2/4/4 16/5/5 14/3/3
f 1/1/1 18/6/6 13/7/2
f 1/1/1 20/8/7 18/9/6
f 1/1/1 17/10/8 20/11/7
f 2/4/4 23/12/9 16/13/5
f 3/14/10 25/15/11 15/16/12
f 4/17/13 27/18/14 19/19/15
f 5/20/16 29/21/17 21/22/18
f 6/23/19 31/24/20 22/25/21
f 2/4/4 26/26/22 23/27/9
f 3/14/10 28/28/23 25/29/11
f 4/17/13 30/30/24 27/31/14
f 5/20/16 32/32/25 29/33/17
f 6/23/19 24/34/26 31/35/20
f 7/36/27 38/37/28 33/38/29
f 8/39/30 40/40/31 34/41/32
f 9/42/33 41/43/34 35/44/35
f 10/45/36 42/46/37 36/47/38
f 11/48/39 39/49/40 37/50/41
f 39/51/40 12/52/42 42/53/37
f 39/51/40 42/46/37 37/50/41
f 37/54/41 42/46/37 10/55/36
f 42/56/37 12/52/42 41/57/34
f 42/56/37 41/43/34 36/47/38
f 36/58/38 41/43/34 9/59/33
f 41/60/34 12/52/42 40/61/31
f 41/60/34 40/40/31 35/44/35
f 35/62/35 40/40/31 8/63/30
f 40/64/31 12/52/42 38/65/28
f 40/64/31 38/37/28 34/41/32
f 34/66/32 38/37/28 7/67/27
f 38/68/28 12/52/42 39/69/40
f 38/68/28 39/49/40 33/38/29
f 33/70/29 39/49/40 11/71/39
f 24/72/26 11/73/39 37/50/41
f 24/72/26 37/74/41 31/35/20
f 31/75/20 37/74/41 10/55/36
f 32/76/25 10/77/36 36/47/38
f 32/76/25 36/78/38 29/33/17
f 29/79/17 36/78/38 9/59/33
f 30/80/24 9/81/33 35/44/35
f 30/80/24 35/82/35 27/31/14
f 27/83/14 35/82/35 8/63/30
f 28/84/23 8/85/30 34/41/32
f 28/84/23 34/86/32 25/29/11
f 25/87/11 34/86/32 7/67/27
f 26/88/22 7/89/27 33/38/29
f 26/88/22 33/90/29 23/27/9
f 23/91/9 33/90/29 11/71/39
f 31/75/20 10/77/36 32/92/25
f 31/75/20 32/32/25 22/25/21
f 22/93/21 32/32/25 5/94/16
f 29/79/17 9/81/33 30/95/24
f 29/79/17 30/30/24 21/22/18
f 21/96/18 30/30/24 4/97/13
f 27/83/14 8/85/30 28/98/23
f 27/83/14 28/28/23 19/19/15
f 19/99/15 28/28/23 3/100/10
f 25/87/11 7/89/27 26/101/22
f 25/87/11 26/26/22 15/16/12
f 15/102/12 26/26/22 2/103/4
f 23/91/9 11/73/39 24/104/26
f 23/91/9 24/34/26 16/13/5
f 16/105/5 24/34/26 6/106/19
f 17/107/8 6/108/19 22/25/21
f 17/107/8 22/109/21 20/11/7
f 20/110/7 22/109/21 5/94/16
f 20/110/7 5/111/16 21/22/18
f 20/110/7 21/112/18 18/9/6
f 18/113/6 21/112/18 4/97/13
f 18/113/6 4/114/13 19/19/15
f 18/113/6 19/115/15 13/7/2
f 13/116/2 19/115/15 3/100/10
f 16/105/5 6/108/19 17/117/8
f 16/105/5 17/10/8 14/3/3
f 14/118/3 17/10/8 1/119/1
f 13/116/2 3/120/10 15/16/12
f 13/116/2 15/121/12 14/3/3
f 14/118/3 15/121/12 2/103/4
